<svg width="17" height="17" viewBox="0 0 17 17" fill="none" xmlns="http://www.w3.org/2000/svg">
<path fill-rule="evenodd" clip-rule="evenodd" d="M3.66735 10.5494C5.20535 10.5494 6.45235 11.8284 6.45235 13.4064C6.45235 14.9834 5.20535 16.2634 3.66735 16.2634C2.12835 16.2634 0.881348 14.9834 0.881348 13.4064C0.881348 11.8284 2.12835 10.5494 3.66735 10.5494ZM3.66735 0.263428C5.20535 0.263428 6.45135 1.54343 6.45135 3.12043C6.45135 4.69843 5.20435 5.97743 3.66635 5.97743C2.12835 5.97743 0.881348 4.69843 0.881348 3.12043C0.881348 1.54343 2.12835 0.263428 3.66735 0.263428ZM13.6953 0.263428C15.2343 0.263428 16.4813 1.54343 16.4813 3.12043C16.4813 4.69843 15.2343 5.97743 13.6953 5.97743C12.1573 5.97743 10.9103 4.69843 10.9103 3.12043C10.9103 1.54343 12.1573 0.263428 13.6953 0.263428Z" fill="#F3603C"/>
<path opacity="0.5" d="M13.6952 16.3774C15.2338 16.3774 16.4812 15.0983 16.4812 13.5204C16.4812 11.9426 15.2338 10.6634 13.6952 10.6634C12.1565 10.6634 10.9092 11.9426 10.9092 13.5204C10.9092 15.0983 12.1565 16.3774 13.6952 16.3774Z" fill="#F3603C"/>
</svg>
