<svg width="121" height="25" viewBox="0 0 121 25" fill="none" xmlns="http://www.w3.org/2000/svg">
<path d="M14.8955 17.0724V8.81643C14.8955 7.23943 15.2615 5.99643 15.9935 5.08643C16.7265 4.17643 17.6435 3.72143 18.7435 3.72143C20.9015 3.72143 21.9805 5.29843 21.9805 8.45243V17.0724H25.7625V7.49243C25.7625 5.07743 25.2625 3.27243 24.2595 2.07543C23.2575 0.878428 21.8265 0.280428 19.9655 0.280428C18.7435 0.280428 17.6255 0.514428 16.6135 0.983428C15.6072 1.44682 14.7286 2.14796 14.0535 3.02643H13.9875C13.0075 1.19543 11.3675 0.280428 9.06554 0.280428C8.09654 0.280428 7.16354 0.497428 6.26654 0.933428C5.35487 1.38071 4.55184 2.02163 3.91354 2.81143H3.86354V0.528428H0.081543V17.0554H3.86354V8.81643C3.86354 7.23943 4.23554 5.99643 4.97854 5.08643C5.72154 4.17643 6.67154 3.72143 7.82754 3.72143C10.0175 3.72143 11.1135 5.29843 11.1135 8.45243V17.0724H14.8955ZM35.9965 17.3204C38.2425 17.3204 39.9935 16.4934 41.2485 14.8384H41.2985V17.0554H44.9145V0.528428H41.1325V2.51343H41.0665C39.8115 1.02443 38.1115 0.280428 35.9635 0.280428C34.9018 0.272887 33.8497 0.483327 32.8726 0.898724C31.8954 1.31412 31.0139 1.92564 30.2825 2.69543C29.5775 3.44543 29.0225 4.35543 28.6145 5.42543C28.2019 6.525 27.9948 7.69102 28.0035 8.86543C28.0035 10.1234 28.2065 11.2814 28.6135 12.3404C29.0215 13.3994 29.5775 14.2924 30.2825 15.0204C30.9996 15.7568 31.8632 16.3346 32.8175 16.7164C33.8278 17.1239 34.9072 17.3291 35.9965 17.3204ZM36.5915 13.8794C35.1925 13.8794 34.0535 13.4134 33.1725 12.4814C32.2925 11.5494 31.8515 10.3494 31.8515 8.88243C31.8515 7.32743 32.3055 6.07843 33.2135 5.13543C34.1225 4.19243 35.2535 3.72143 36.6075 3.72143C37.9505 3.72143 39.0655 4.21443 39.9525 5.20143C40.8385 6.18943 41.2825 7.41643 41.2825 8.88243C41.2825 10.3494 40.8275 11.5494 39.9195 12.4814C39.0105 13.4134 37.9015 13.8794 36.5915 13.8794ZM63.7035 17.0724V7.32743C63.7035 4.93443 63.1675 3.16143 62.0935 2.00843C61.0215 0.856428 59.5365 0.280428 57.6435 0.280428C56.5905 0.274723 55.5485 0.494657 54.5875 0.925428C53.6316 1.35432 52.7849 1.99355 52.1105 2.79543H52.0605V0.527428H48.2785V17.0544H52.0605V8.75043C52.0605 7.16243 52.4485 5.92743 53.2245 5.04443C54.0015 4.16243 55.0385 3.72143 56.3375 3.72143C56.9325 3.72143 57.4415 3.79843 57.8655 3.95243C58.2895 4.10743 58.6615 4.35843 58.9805 4.70543C59.3005 5.05343 59.5365 5.52443 59.6905 6.12043C59.8445 6.71543 59.9215 7.44343 59.9215 8.30343V17.0724H63.7035ZM73.9215 17.3204C76.1675 17.3204 77.9175 16.4934 79.1735 14.8384H79.2235V17.0554H82.8395V0.528428H79.0575V2.51343H78.9915C77.7365 1.02443 76.0355 0.280428 73.8885 0.280428C72.8266 0.27275 71.7744 0.483124 70.797 0.898525C69.8197 1.31393 68.938 1.92551 68.2065 2.69543C67.5025 3.44543 66.9465 4.35543 66.5385 5.42543C66.1263 6.52507 65.9195 7.69108 65.9285 8.86543C65.9285 10.1234 66.1315 11.2814 66.5385 12.3404C66.9465 13.3994 67.5025 14.2924 68.2065 15.0204C68.9239 15.757 69.7879 16.3347 70.7425 16.7164C71.7525 17.1237 72.8326 17.329 73.9215 17.3204ZM74.5155 13.8794C73.1175 13.8794 71.9775 13.4134 71.0975 12.4814C70.2165 11.5494 69.7755 10.3494 69.7755 8.88243C69.7755 7.32743 70.2305 6.07843 71.1385 5.13543C72.0465 4.19243 73.1785 3.72143 74.5325 3.72143C75.8755 3.72143 76.9905 4.21443 77.8765 5.20143C78.7625 6.18943 79.2065 7.41643 79.2065 8.88243C79.2065 10.3494 78.7515 11.5494 77.8435 12.4814C76.9355 13.4134 75.8255 13.8794 74.5155 13.8794ZM93.5855 24.0044C94.7855 24.0044 95.8595 23.8644 96.8055 23.5824C97.7525 23.3014 98.5485 22.9094 99.1925 22.4074C99.8402 21.9016 100.384 21.2755 100.795 20.5634C101.223 19.8222 101.532 19.018 101.711 18.1804C101.899 17.3204 101.992 16.3774 101.992 15.3514V0.528428H98.2095V2.26543H98.1435C97.4659 1.61743 96.666 1.1109 95.7905 0.775428C94.908 0.434461 93.9697 0.260834 93.0235 0.263428C91.5155 0.263428 90.1615 0.621428 88.9615 1.33843C87.7615 2.05543 86.8275 3.05143 86.1615 4.32543C85.4955 5.59843 85.1625 7.03043 85.1625 8.61843C85.1625 10.2284 85.5125 11.6564 86.2115 12.9034C86.9105 14.1494 87.8715 15.1064 89.0935 15.7734C90.3155 16.4404 91.6915 16.7744 93.2225 16.7744C95.2695 16.7744 96.9385 16.1014 98.2265 14.7564H98.2925V16.5094C98.2925 17.6794 97.8625 18.6494 97.0045 19.4214C96.1445 20.1934 94.9345 20.5794 93.3705 20.5794C92.3025 20.5794 91.3645 20.4474 90.5545 20.1824C89.7455 19.9174 88.8125 19.5044 87.7555 18.9424L86.8635 22.2834C87.7885 22.8354 88.8295 23.2594 89.9855 23.5574C91.1415 23.8554 92.3415 24.0044 93.5855 24.0044ZM93.7175 13.2844C92.3525 13.2844 91.2265 12.8504 90.3405 11.9844C89.4535 11.1194 89.0105 9.95843 89.0105 8.50243C89.0105 7.10243 89.4455 5.96043 90.3155 5.07743C91.1855 4.19543 92.3195 3.75443 93.7175 3.75443C95.0495 3.75443 96.1595 4.18943 97.0455 5.06143C97.9315 5.93243 98.3755 7.06343 98.3755 8.45243C98.3755 9.85343 97.9425 11.0084 97.0785 11.9184C96.2145 12.8284 95.0935 13.2844 93.7175 13.2844ZM112.804 17.3204C114.346 17.3204 115.703 17.0394 116.875 16.4764C118.048 15.9144 119.008 15.1534 119.757 14.1934L117.115 11.9274C116.08 13.2284 114.709 13.8794 113.002 13.8794C111.792 13.8794 110.765 13.5424 109.922 12.8694C109.08 12.1974 108.538 11.2764 108.295 10.1074H120.319C120.385 9.71043 120.418 9.20743 120.418 8.60143C120.418 7.00243 120.093 5.57443 119.443 4.31643C118.812 3.07935 117.837 2.05104 116.636 1.35543C115.414 0.638428 114.004 0.280428 112.408 0.280428C111.314 0.272238 110.23 0.483047 109.22 0.900428C108.23 1.31443 107.376 1.89043 106.66 2.62943C105.945 3.36843 105.383 4.26743 104.976 5.32543C104.569 6.38543 104.365 7.53743 104.365 8.78343C104.365 10.4714 104.734 11.9684 105.471 13.2754C106.209 14.5824 107.217 15.5834 108.494 16.2784C109.771 16.9734 111.208 17.3204 112.804 17.3204ZM116.619 7.04643H108.362C108.626 5.98743 109.138 5.16843 109.897 4.58943C110.657 4.01043 111.56 3.72143 112.606 3.72143C113.663 3.72143 114.536 4.01943 115.224 4.61443C115.912 5.21043 116.377 6.02043 116.619 7.04643Z" fill="white"/>
</svg>
