<svg width="146" height="24" viewBox="0 0 146 24" fill="none" xmlns="http://www.w3.org/2000/svg">
<g clip-path="url(#clip0_4_9)">
<path d="M40.014 16.9385V8.68255C40.014 7.10555 40.38 5.86255 41.112 4.95255C41.845 4.04255 42.762 3.58755 43.862 3.58755C46.02 3.58755 47.099 5.16455 47.099 8.31855V16.9385H50.881V7.35855C50.881 4.94355 50.381 3.13855 49.378 1.94155C48.376 0.744545 46.945 0.146545 45.084 0.146545C43.862 0.146545 42.744 0.380545 41.732 0.849545C40.7257 1.31294 39.8471 2.01408 39.172 2.89255H39.106C38.126 1.06155 36.486 0.146545 34.184 0.146545C33.215 0.146545 32.282 0.363545 31.385 0.799545C30.4733 1.24682 29.6703 1.88775 29.032 2.67755H28.982V0.394545H25.2V16.9215H28.982V8.68255C28.982 7.10555 29.354 5.86255 30.097 4.95255C30.84 4.04255 31.79 3.58755 32.946 3.58755C35.136 3.58755 36.232 5.16455 36.232 8.31855V16.9385H40.014ZM61.115 17.1865C63.361 17.1865 65.112 16.3595 66.367 14.7045H66.417V16.9215H70.033V0.394545H66.251V2.37955H66.185C64.93 0.890545 63.23 0.146545 61.082 0.146545C60.0202 0.139005 58.9682 0.349445 57.991 0.764842C57.0139 1.18024 56.1323 1.79175 55.401 2.56155C54.696 3.31155 54.141 4.22155 53.733 5.29155C53.3204 6.39112 53.1133 7.55714 53.122 8.73155C53.122 9.98955 53.325 11.1475 53.732 12.2065C54.14 13.2655 54.696 14.1585 55.401 14.8865C56.1181 15.623 56.9817 16.2007 57.936 16.5825C58.9463 16.99 60.0267 17.1952 61.116 17.1865H61.115ZM61.71 13.7455C60.311 13.7455 59.172 13.2795 58.291 12.3475C57.411 11.4155 56.97 10.2155 56.97 8.74855C56.97 7.19355 57.424 5.94455 58.332 5.00155C59.241 4.05855 60.372 3.58755 61.726 3.58755C63.069 3.58755 64.184 4.08055 65.071 5.06755C65.957 6.05555 66.401 7.28255 66.401 8.74855C66.401 10.2155 65.946 11.4155 65.038 12.3475C64.129 13.2795 63.02 13.7455 61.71 13.7455ZM88.822 16.9385V7.19355C88.822 4.80055 88.286 3.02755 87.212 1.87455C86.14 0.722545 84.655 0.146545 82.762 0.146545C81.709 0.14084 80.6669 0.360774 79.706 0.791545C78.7501 1.22044 77.9034 1.85967 77.229 2.66155H77.179V0.393545H73.397V16.9205H77.179V8.61655C77.179 7.02855 77.567 5.79355 78.343 4.91055C79.12 4.02855 80.157 3.58755 81.456 3.58755C82.051 3.58755 82.56 3.66455 82.984 3.81855C83.408 3.97355 83.78 4.22455 84.099 4.57155C84.419 4.91955 84.655 5.39054 84.809 5.98655C84.963 6.58154 85.04 7.30955 85.04 8.16955V16.9385H88.822ZM99.04 17.1865C101.286 17.1865 103.036 16.3595 104.292 14.7045H104.342V16.9215H107.958V0.394545H104.176V2.37955H104.11C102.855 0.890545 101.154 0.146545 99.007 0.146545C97.9451 0.138868 96.8929 0.349241 95.9155 0.764642C94.9381 1.18004 94.0565 1.79163 93.325 2.56155C92.621 3.31155 92.065 4.22155 91.657 5.29155C91.2447 6.39118 91.038 7.5572 91.047 8.73155C91.047 9.98955 91.25 11.1475 91.657 12.2065C92.065 13.2655 92.621 14.1585 93.325 14.8865C94.0424 15.6231 94.9063 16.2009 95.861 16.5825C96.871 16.9899 97.951 17.1951 99.04 17.1865ZM99.634 13.7455C98.236 13.7455 97.096 13.2795 96.216 12.3475C95.335 11.4155 94.894 10.2155 94.894 8.74855C94.894 7.19355 95.349 5.94455 96.257 5.00155C97.165 4.05855 98.297 3.58755 99.651 3.58755C100.994 3.58755 102.109 4.08055 102.995 5.06755C103.881 6.05555 104.325 7.28255 104.325 8.74855C104.325 10.2155 103.87 11.4155 102.962 12.3475C102.054 13.2795 100.944 13.7455 99.634 13.7455ZM118.704 23.8705C119.904 23.8705 120.978 23.7305 121.924 23.4485C122.871 23.1675 123.667 22.7755 124.311 22.2735C124.959 21.7677 125.503 21.1416 125.913 20.4295C126.342 19.6883 126.651 18.8841 126.829 18.0465C127.017 17.1865 127.11 16.2435 127.11 15.2175V0.394545H123.328V2.13155H123.262C122.584 1.48354 121.785 0.977021 120.909 0.641545C120.026 0.300579 119.088 0.126952 118.142 0.129545C116.634 0.129545 115.28 0.487545 114.08 1.20455C112.88 1.92155 111.946 2.91754 111.28 4.19155C110.614 5.46455 110.281 6.89654 110.281 8.48454C110.281 10.0945 110.631 11.5225 111.33 12.7695C112.029 14.0155 112.99 14.9725 114.212 15.6395C115.434 16.3065 116.81 16.6405 118.341 16.6405C120.388 16.6405 122.057 15.9675 123.345 14.6225H123.411V16.3755C123.411 17.5455 122.981 18.5155 122.123 19.2875C121.263 20.0595 120.053 20.4455 118.489 20.4455C117.421 20.4455 116.483 20.3135 115.673 20.0485C114.864 19.7835 113.931 19.3705 112.874 18.8085L111.982 22.1495C112.907 22.7015 113.948 23.1255 115.104 23.4235C116.26 23.7215 117.46 23.8705 118.704 23.8705ZM118.836 13.1505C117.471 13.1505 116.345 12.7165 115.459 11.8505C114.572 10.9855 114.129 9.82455 114.129 8.36855C114.129 6.96855 114.564 5.82655 115.434 4.94355C116.304 4.06155 117.438 3.62055 118.836 3.62055C120.168 3.62055 121.278 4.05555 122.164 4.92755C123.05 5.79854 123.494 6.92955 123.494 8.31855C123.494 9.71955 123.061 10.8745 122.197 11.7845C121.333 12.6945 120.212 13.1495 118.836 13.1495V13.1505ZM137.922 17.1865C139.464 17.1865 140.821 16.9055 141.993 16.3425C143.166 15.7805 144.126 15.0195 144.875 14.0595L142.233 11.7935C141.198 13.0945 139.827 13.7455 138.12 13.7455C136.91 13.7455 135.883 13.4085 135.04 12.7355C134.198 12.0635 133.656 11.1425 133.413 9.97355H145.437C145.503 9.57654 145.536 9.07355 145.536 8.46755C145.536 6.86855 145.211 5.44055 144.561 4.18255C143.931 2.94547 142.956 1.91715 141.754 1.22155C140.532 0.504545 139.122 0.146545 137.526 0.146545C136.433 0.138355 135.349 0.349165 134.338 0.766545C133.348 1.18055 132.494 1.75655 131.778 2.49555C131.063 3.23455 130.501 4.13354 130.094 5.19155C129.687 6.25154 129.483 7.40355 129.483 8.64955C129.483 10.3375 129.852 11.8345 130.589 13.1415C131.327 14.4485 132.335 15.4495 133.612 16.1445C134.889 16.8395 136.326 17.1865 137.922 17.1865ZM141.737 6.91255H133.48C133.744 5.85355 134.256 5.03455 135.015 4.45555C135.775 3.87655 136.678 3.58755 137.724 3.58755C138.781 3.58755 139.654 3.88555 140.342 4.48055C141.03 5.07655 141.495 5.88655 141.737 6.91255Z" fill="#242D52"/>
<path fill-rule="evenodd" clip-rule="evenodd" d="M2.786 10.4155C4.324 10.4155 5.571 11.6945 5.571 13.2725C5.571 14.8495 4.324 16.1295 2.786 16.1295C1.247 16.1295 0 14.8495 0 13.2725C0 11.6945 1.247 10.4155 2.786 10.4155ZM2.786 0.129517C4.324 0.129517 5.57 1.40952 5.57 2.98652C5.57 4.56452 4.323 5.84352 2.785 5.84352C1.247 5.84352 0 4.56452 0 2.98652C0 1.40952 1.247 0.129517 2.786 0.129517ZM12.814 0.129517C14.353 0.129517 15.6 1.40952 15.6 2.98652C15.6 4.56452 14.353 5.84352 12.814 5.84352C11.276 5.84352 10.029 4.56452 10.029 2.98652C10.029 1.40952 11.276 0.129517 12.814 0.129517Z" fill="#F3603C"/>
<path opacity="0.5" d="M12.814 16.2435C14.3527 16.2435 15.6 14.9644 15.6 13.3865C15.6 11.8087 14.3527 10.5295 12.814 10.5295C11.2754 10.5295 10.028 11.8087 10.028 13.3865C10.028 14.9644 11.2754 16.2435 12.814 16.2435Z" fill="#F3603C"/>
</g>
<defs>
<clipPath id="clip0_4_9">
<rect width="145.536" height="23.741" fill="white" transform="translate(0 0.129517)"/>
</clipPath>
</defs>
</svg>
